<svg width="24" height="24" viewBox="0 0 24 24" fill="none" xmlns="http://www.w3.org/2000/svg">
<path fill-rule="evenodd" clip-rule="evenodd" d="M11.5939 0.869421C11.8083 0.731368 12.0781 0.711708 12.3103 0.817227L20.5603 4.56723C20.828 4.68893 20.9999 4.95589 20.9999 5.25C20.9999 5.54411 20.828 5.81107 20.5603 5.93278L12.7499 9.48294V18.75C12.7499 19.1642 12.4142 19.5 11.9999 19.5C11.5857 19.5 11.2499 19.1642 11.2499 18.75V9.017C11.2497 9.00595 11.2497 8.99491 11.2499 8.9839V1.5C11.2499 1.245 11.3795 1.00747 11.5939 0.869421ZM12.7499 7.83525L18.4375 5.25L12.7499 2.66475V7.83525Z" fill="#F6F6F6"/>
<path fill-rule="evenodd" clip-rule="evenodd" d="M2.28151 21.4498C3.15137 17.1091 7.7696 15 12 15C16.2305 15 20.8486 17.1091 21.719 21.4497C21.8037 21.8724 21.7189 22.3214 21.4494 22.6755C21.1717 23.0405 20.739 23.25 20.25 23.25H3.75001C3.26105 23.25 2.82844 23.0403 2.55094 22.6754C2.28164 22.3213 2.19681 21.8725 2.28151 21.4498ZM12 16.5C8.07418 16.5 4.41429 18.4409 3.75227 21.7446C3.75189 21.7464 3.75156 21.7483 3.75129 21.75H20.2492C20.2489 21.7483 20.2486 21.7465 20.2482 21.7446C19.5858 18.4409 15.9258 16.5 12 16.5Z" fill="#F6F6F6"/>
</svg>
