<svg width="36" height="36" viewBox="0 0 36 36" fill="none" xmlns="http://www.w3.org/2000/svg">
<path fill-rule="evenodd" clip-rule="evenodd" d="M18.0057 6.49426C18.6648 7.15327 18.6648 8.22173 18.0057 8.88074L9.07399 17.8125L18.0057 26.7443C18.6648 27.4033 18.6648 28.4717 18.0057 29.1307C17.3467 29.7898 16.2783 29.7898 15.6193 29.1307L5.49426 19.0057C4.83525 18.3467 4.83525 17.2783 5.49426 16.6193L15.6193 6.49426C16.2783 5.83525 17.3467 5.83525 18.0057 6.49426Z" fill="#F6F6F6"/>
<path fill-rule="evenodd" clip-rule="evenodd" d="M6.40625 17.8125C6.40625 16.8805 7.16177 16.125 8.09375 16.125H28.625C29.557 16.125 30.3125 16.8805 30.3125 17.8125C30.3125 18.7445 29.557 19.5 28.625 19.5H8.09375C7.16177 19.5 6.40625 18.7445 6.40625 17.8125Z" fill="#F6F6F6"/>
</svg>
